<svg width="16" height="22" viewBox="0 0 16 22" fill="none" xmlns="http://www.w3.org/2000/svg">
<path d="M15.6776 18.6374L14.5607 6.34719C14.5292 6.00856 14.2457 5.75 13.9058 5.75H11.937V4.4375C11.937 3.38225 11.5288 2.39131 10.7873 1.64975C10.0457 0.908187 9.05476 0.5 7.99951 0.5C5.82864 0.5 4.06201 2.26662 4.06201 4.4375V5.75H2.09326C1.75333 5.75 1.46983 6.00856 1.43964 6.34719L0.322701 18.6374C0.255763 19.3698 0.502514 20.1022 0.998638 20.6456C1.49476 21.1889 2.20089 21.5 2.9372 21.5H13.0631C13.7994 21.5 14.5056 21.1889 15.0017 20.6456C15.4978 20.1022 15.7433 19.3698 15.6776 18.6374ZM5.37451 4.4375C5.37451 2.98981 6.55182 1.8125 7.99951 1.8125C8.70432 1.8125 9.36451 2.08419 9.85932 2.57769C10.3541 3.07119 10.6245 3.73269 10.6245 4.4375V5.75H5.37451V4.4375ZM14.0318 19.7609C13.7798 20.0352 13.4359 20.1875 13.0618 20.1875H2.9372C2.56445 20.1875 2.21926 20.0352 1.96858 19.7596C1.71658 19.484 1.59714 19.1283 1.63126 18.7556L2.69308 7.0625H4.06201V9.03125C4.06201 9.3935 4.35601 9.6875 4.71826 9.6875C5.08051 9.6875 5.37451 9.3935 5.37451 9.03125V7.0625H10.6245V9.03125C10.6245 9.3935 10.9185 9.6875 11.2808 9.6875C11.643 9.6875 11.937 9.3935 11.937 9.03125V7.0625H13.3059L14.3691 18.7569C14.4032 19.1283 14.2838 19.4853 14.0318 19.7609Z" fill="#AFBEC4"/>
</svg>
