<svg width="18" height="20" viewBox="0 0 18 20" fill="none" xmlns="http://www.w3.org/2000/svg">
<path d="M17.5713 7.8213L9.23797 0.182392C8.96645 -0.0660068 8.54887 -0.0599521 8.28496 0.196064L0.414573 7.83493C0.279846 7.96571 0.203674 8.14559 0.203674 8.33329V19.3055C0.203674 19.6891 0.514534 20 0.898127 20H6.68516C7.06871 20 7.37961 19.6891 7.37961 19.3055V14.2129H10.6204V19.3055C10.6204 19.6891 10.9312 20 11.3148 20H17.1018C17.4854 20 17.7963 19.6893 17.7963 19.3055V8.33333C17.7963 8.13864 17.7148 7.95302 17.5713 7.8213ZM16.4074 18.6111H12.0093V13.5185C12.0093 13.135 11.6984 12.8241 11.3148 12.8241H6.6852C6.30164 12.8241 5.99075 13.135 5.99075 13.5185V18.6111H1.59258V8.62708L8.78219 1.64907L16.4074 8.63888V18.6111H16.4074Z" fill="#1C1C19"/>
</svg>
